<svg width="24" height="25" viewBox="0 0 24 25" fill="none" xmlns="http://www.w3.org/2000/svg">
  <path opacity="0.4" d="M17 21H7C4 21 2 19.5 2 16V9C2 5.5 4 4 7 4H17C20 4 22 5.5 22 9V16C22 19.5 20 21 17 21Z" fill="#006FF9" />
  <path d="M12.0008 13.37C11.1608 13.37 10.3108 13.11 9.66076 12.58L6.53075 10.08C6.21075 9.81997 6.15076 9.34997 6.41076 9.02997C6.67076 8.70997 7.14076 8.64997 7.46076 8.90997L10.5908 11.41C11.3508 12.02 12.6407 12.02 13.4007 11.41L16.5308 8.90997C16.8508 8.64997 17.3308 8.69997 17.5808 9.02997C17.8408 9.34997 17.7908 9.82997 17.4608 10.08L14.3308 12.58C13.6908 13.11 12.8408 13.37 12.0008 13.37Z" fill="#006FF9" />
</svg>